<?xml version="1.0" encoding="utf-8"?>
<!-- Generator: Adobe Illustrator 27.3.1, SVG Export Plug-In . SVG Version: 6.00 Build 0)  -->
<svg version="1.1" id="a" xmlns="http://www.w3.org/2000/svg" xmlns:xlink="http://www.w3.org/1999/xlink" x="0px" y="0px"
	 viewBox="0 0 300.2 70.9" style="enable-background:new 0 0 300.2 70.9;" xml:space="preserve">
<style type="text/css">
	.st0{fill:#0033A0;}
</style>
<rect x="140.6" y="14.1" class="st0" width="1.5" height="42.6"/>
<rect x="57.3" y="14.2" class="st0" width="4" height="27.9"/>
<path class="st0" d="M96.8,28.1c0-7.5-5.8-14.3-15-14.3s-14.9,7-14.9,14.4c0,7.8,6,14.2,14.7,14.2S96.8,36.1,96.8,28.1L96.8,28.1z
	 M81.8,38.7C76,38.7,71,34.5,71,28.2c0-4.7,3.1-10.6,11-10.6c7.3,0,10.8,5.8,10.8,10.5c0,2.4-1,5.4-2.8,7.4
	C88,37.5,84.8,38.7,81.8,38.7L81.8,38.7z"/>
<polygon class="st0" points="115.6,31.1 124.2,20.3 124.2,42.1 128.2,42.1 128.2,14.2 124.5,14.2 115.2,25.6 106,14.2 102.2,14.2 
	102.2,42.1 106.2,42.1 106.2,20.3 114.9,31.1 "/>
<path class="st0" d="M21.3,52.6c0,0.9-0.1,1.4-0.3,1.7c-0.2,0.4-0.9,1.2-2.4,1.2c-1.1,0-1.7-0.4-2.1-0.8c-0.5-0.5-0.6-0.9-0.6-2.2
	v-5.3h-1.4v5.3c0,0.6,0,1.7,0.5,2.5c0.7,1.2,2.2,1.6,3.6,1.6c1.1,0,2.1-0.3,3-1c1.1-0.9,1.1-2.2,1.1-3.1v-5.3h-1.3
	C21.3,47.4,21.3,52.6,21.3,52.6z"/>
<polygon class="st0" points="33.7,54.6 27.3,47.4 26.2,47.4 26.2,56.7 27.5,56.7 27.5,49.5 33.8,56.7 35,56.7 35,47.4 33.7,47.4 "/>
<polygon class="st0" points="48.1,51.2 44.9,47.4 43.7,47.4 43.7,56.7 45,56.7 45,49.4 48,53 48.2,53 51.1,49.4 51.1,56.7 
	52.5,56.7 52.5,47.4 51.2,47.4 "/>
<rect x="56.3" y="47.4" class="st0" width="1.4" height="9.3"/>
<path class="st0" d="M66.1,53.3h1.8v1.9c-0.9,0.3-1.4,0.4-2.1,0.4c-2.3,0-3.8-1.5-3.8-3.6c0-2.2,1.8-3.6,3.7-3.6
	c0.5,0,1.8,0.1,3.4,1V48c-1-0.4-2-0.8-3.3-0.8c-3.2,0-5.1,2.4-5.1,4.8c0,2.1,1.5,4.7,5.2,4.7c1.6,0,2.7-0.4,3.5-0.8V52h-3.2
	L66.1,53.3L66.1,53.3z"/>
<path class="st0" d="M76.8,52.2c1-0.4,1.6-1.2,1.6-2.3c0-0.9-0.5-1.9-1.5-2.3c-0.6-0.3-1.2-0.3-1.6-0.3h-2.4v9.3h1.3v-4h0.4
	c0.6,0,1.1,0,2,1.2c0.3,0.4,1.6,2.4,1.9,2.9h1.6c-0.6-0.9-0.9-1.2-1.3-1.8C78.2,53.7,77.7,52.8,76.8,52.2L76.8,52.2z M76.1,51.3
	c-0.4,0.1-1.1,0.1-1.3,0.1h-0.5v-2.9h0.4c0.8,0,1.3,0,1.6,0.2c0.4,0.2,0.7,0.7,0.7,1.2C77,50.5,76.7,51,76.1,51.3L76.1,51.3z"/>
<path class="st0" d="M85.8,47.3l-4.1,9.3h1.4l1.2-2.7h4l1.3,2.7H91l-4.2-9.3C86.7,47.3,85.8,47.3,85.8,47.3z M84.8,52.7l1.4-3.4
	l1.5,3.4H84.8z"/>
<polygon class="st0" points="91.6,48.5 94.9,48.5 94.9,56.7 96.2,56.7 96.2,48.5 99.5,48.5 99.5,47.4 91.6,47.4 "/>
<rect x="102.5" y="47.4" class="st0" width="1.4" height="9.3"/>
<path class="st0" d="M111.8,47.2c-3.2,0-5.1,2.3-5.1,4.8c0,2.6,2,4.7,5,4.7s5.2-2.1,5.2-4.8C116.9,49.5,114.9,47.2,111.8,47.2z
	 M114.6,54.4c-0.6,0.7-1.7,1.1-2.8,1.1c-2,0-3.7-1.4-3.7-3.5c0-1.5,1.1-3.5,3.7-3.5c2.5,0,3.7,1.9,3.7,3.5
	C115.5,52.8,115.2,53.8,114.6,54.4L114.6,54.4z"/>
<polygon class="st0" points="127,54.6 120.6,47.4 119.5,47.4 119.5,56.7 120.8,56.7 120.8,49.5 127.1,56.7 128.3,56.7 128.3,47.4 
	127,47.4 "/>
<path class="st0" d="M28.8,25.5c0.3,0,0.6-0.2,0.6-0.6c0-0.3-0.2-0.6-0.6-0.6s-0.6,0.2-0.6,0.6C28.2,25.2,28.5,25.5,28.8,25.5z"/>
<path class="st0" d="M26.8,28.9c0.1,0,0.2-0.1,0.2-0.1l1-2.4l0.1,2.3l-0.4,2.9c0,0.1,0,0.2,0.2,0.3H28c0.1,0,0.2-0.1,0.2-0.2
	l0.4-2.8h0.5l0.4,2.8c0,0.1,0.1,0.2,0.2,0.2h0.1c0.1,0,0.2-0.2,0.2-0.3l-0.4-2.9l0.1-2.3l1,2.4l0,0l0,0l0,0l0,0l0,0l0,0l0,0l0,0l0,0
	l0,0l0,0l0,0H31l-0.3,1.7c0,0.1,0,0.2,0.1,0.3c0,0.1,0.1,0.1,0.2,0.1v0.7c0,0.1,0.1,0.2,0.2,0.2s0.2-0.1,0.2-0.2V31l0,0l0,0h0.3v0.7
	c0,0.1,0.1,0.2,0.2,0.2s0.2-0.1,0.2-0.2V31c0.1,0,0.1-0.1,0.2-0.1c0.1-0.1,0.1-0.2,0.1-0.3L32,28.9h0.2l0,0l0,0l0,0l0,0l0,0l0,0l0,0
	l0,0l0,0l0,0l0,0l0,0l1-2.5l0.2,1c0,0.2,0,0.3,0,0.5l-1,4.1h3l-1-4.1c0-0.2,0-0.3,0-0.5l0.2-1l0.8,2c0,0.1,0.1,0.1,0.2,0.1h0.1
	c0.1,0,0.2-0.2,0.1-0.3L34.9,26c0-0.1-0.1-0.1-0.2-0.1H33c-0.1,0-0.2,0.1-0.2,0.1L32,28.4h-1.1l-1.1-2.6c0-0.1-0.1-0.1-0.2-0.1h-1.7
	c-0.1,0-0.2,0.1-0.2,0.1l-1.1,2.7c0,0.1,0,0.2,0.1,0.3C26.6,28.9,26.7,28.9,26.8,28.9L26.8,28.9z"/>
<path class="st0" d="M34.2,25.5c0.3,0,0.6-0.2,0.6-0.6c0-0.3-0.2-0.6-0.6-0.6c-0.3,0-0.6,0.2-0.6,0.6C33.7,25.2,33.9,25.5,34.2,25.5
	z"/>
<path class="st0" d="M31.5,28.3c0.2,0,0.4-0.2,0.4-0.4s-0.2-0.4-0.4-0.4c-0.2,0-0.4,0.2-0.4,0.4S31.3,28.3,31.5,28.3z"/>
<path class="st0" d="M48.6,27.3c0-4.4-2-9.4-5.3-13.1h-2.9c0.8,0.7,1.8,1.9,1.8,1.9c2.8,3.2,4.5,7.4,4.5,11.2v0.1H42
	c-0.7-7.4-6.6-13.3-13.8-13.3c-7.7,0-13.9,6.6-13.9,14.8c0,4.4,2,9.4,5.3,13.1h2.9c-0.8-0.7-1.8-1.9-1.8-1.9
	c-2.8-3.2-4.5-7.4-4.5-11.2v-0.1h4.7c0.7,7.4,6.6,13.3,13.8,13.3C42.4,42.1,48.6,35.4,48.6,27.3L48.6,27.3z M35,40.1v-3.5
	c2,0.1,3.8,0.9,5.1,2.1C38.5,39.6,36.8,40.1,35,40.1z M35,35.9v-2.2h6.5C40.6,35,39.3,36,38,36.6C37.1,36.2,36.1,35.9,35,35.9z
	 M40.7,38.4c-0.5-0.5-1.1-1-1.8-1.4c1.3-0.7,2.6-1.9,3.5-3.3H45C44,35.6,42.5,37.3,40.7,38.4z M46.6,28.4c-0.1,1.6-0.5,3.1-1.1,4.4
	H43c0.7-1.2,1.1-2.6,1.1-4.1c0-0.1,0-0.2,0-0.4h2.5V28.4z M40,27.5h-2.4v-0.1c0-1.4-0.4-2.8-1.1-4.1h2.4
	C39.5,24.7,39.9,26.1,40,27.5z M38.5,22.5H36c-0.9-1.4-2.2-2.5-3.5-3.3c0.6-0.4,1.2-0.8,1.8-1.3C36,19.1,37.5,20.6,38.5,22.5
	L38.5,22.5z M28.7,16.2c1.8,0.1,3.4,0.6,4.9,1.4c-1.3,1.2-3,2-4.9,2.1C28.7,19.6,28.7,16.2,28.7,16.2z M28.7,20.4
	c1-0.1,2-0.3,2.9-0.7c1.3,0.6,2.6,1.6,3.5,2.8h-6.4L28.7,20.4L28.7,20.4z M27.8,16.1v3.5c-2-0.1-3.8-0.9-5.1-2.1
	C24.3,16.7,26,16.2,27.8,16.1z M27.8,20.4v2.2h-6.5c0.9-1.2,2.2-2.2,3.5-2.8C25.7,20.1,26.7,20.3,27.8,20.4z M22.1,17.9
	c0.5,0.5,1.1,1,1.8,1.4c-1.3,0.7-2.6,1.9-3.5,3.3h-2.6C18.8,20.6,20.3,19,22.1,17.9z M16.2,27.8c0.1-1.6,0.5-3.1,1.1-4.4h2.5
	c-0.7,1.2-1.1,2.6-1.1,4.1c0,0.1,0,0.2,0,0.4C18.8,27.8,16.2,27.8,16.2,27.8z M19.5,27.8c0-0.1,0-0.3,0-0.4c0-1.4,0.4-2.8,1.2-4.1
	h15c0.7,1.2,1.2,2.6,1.2,4.1v0.1l0,0v0.9h6.4c0,0.1,0,0.3,0,0.4c0,1.4-0.4,2.8-1.2,4.1h-15c-0.7-1.2-1.2-2.6-1.2-4.1v-0.1l0,0v-0.9
	L19.5,27.8L19.5,27.8z M22.8,28.7h2.4v0.1c0,1.4,0.4,2.8,1.1,4.1h-2.4C23.3,31.6,22.9,30.2,22.8,28.7z M24.3,33.7h2.5
	c0.9,1.4,2.2,2.5,3.5,3.3c-0.6,0.4-1.2,0.8-1.8,1.3C26.8,37.2,25.3,35.6,24.3,33.7L24.3,33.7z M34.1,40.1c-1.8-0.1-3.4-0.6-4.9-1.4
	c1.3-1.2,3-2,4.9-2.1V40.1z M34.1,35.9c-1,0.1-2,0.3-2.9,0.7c-1.3-0.6-2.6-1.6-3.5-2.8h6.4V35.9L34.1,35.9z"/>
<path class="st0" d="M158.6,27.6h-3.9v10.2h3.9c3.2,0,5.5-2.1,5.5-5.2C164.1,29.7,162,27.6,158.6,27.6L158.6,27.6z M158.5,36.5h-2.3
	v-7.6h2.1c2.9,0,4.3,1.5,4.3,3.7C162.6,35.1,161.1,36.5,158.5,36.5L158.5,36.5z"/>
<rect x="166" y="27.6" class="st0" width="1.5" height="10.2"/>
<path class="st0" d="M171.6,32.9c2,1.2,2.2,1.6,2.2,2.3c0,0.8-0.6,1.3-1.5,1.3c-1.1,0-2-0.5-2.8-1.5v2c0.8,0.6,1.7,0.9,2.8,0.9
	c1.8,0,3-1.2,3-2.7c0-1.4-0.5-2.1-2.6-3.4c-1.6-0.9-1.7-1.4-1.7-2c0-0.7,0.6-1.2,1.5-1.2s1.7,0.4,2.4,1.1V28
	c-0.7-0.5-1.5-0.7-2.3-0.7c-1.7,0-3,1.1-3,2.5C169.5,31.2,170.1,32.1,171.6,32.9L171.6,32.9z"/>
<path class="st0" d="M177.2,27.6v10.2h1.5v-4.4h1.4c2.2,0,3.6-0.9,3.6-2.9c0-1.8-1.2-2.9-3.3-2.9L177.2,27.6L177.2,27.6z
	 M182.1,30.4c0,1-0.4,1.6-2.1,1.6h-1.3v-3.2h1.3C181.6,28.9,182.1,29.5,182.1,30.4z"/>
<polygon class="st0" points="191.1,36.5 186.5,36.5 186.5,27.6 185,27.6 185,37.8 191.1,37.8 "/>
<path class="st0" d="M199,34.8l1.4,3h1.5l-4.6-10.3h-1l-4.4,10.3h1.5l1.3-3H199z M196.8,29.5l1.7,4h-3.2
	C195.2,33.5,196.8,29.5,196.8,29.5z"/>
<path class="st0" d="M202,32.7c0,2.4,1.7,5.2,5.5,5.2c1.3,0,2.5-0.2,3.7-0.9v-1.6c-1.1,0.7-2.3,1.1-3.7,1.1c-2.5,0-4-1.8-4-3.9
	s1.5-3.9,4-3.9c1.2,0,2.4,0.4,3.5,1v-1.5c-1.2-0.6-2.4-0.8-3.6-0.8C204.5,27.4,202,29.7,202,32.7L202,32.7z"/>
<polygon class="st0" points="219,28.9 219,27.6 213.2,27.6 213.2,37.8 219.1,37.8 219.1,36.5 214.7,36.5 214.7,33.3 218.9,33.3 
	218.9,32 214.7,32 214.7,28.9 "/>
<polygon class="st0" points="225.8,31.8 222.4,27.6 221,27.6 221,37.8 222.5,37.8 222.5,29.8 225.7,33.8 225.9,33.8 229.1,29.8 
	229.1,37.8 230.6,37.8 230.6,27.6 229.2,27.6 "/>
<polygon class="st0" points="238.9,36.5 234.5,36.5 234.5,33.3 238.6,33.3 238.6,32 234.5,32 234.5,28.9 238.8,28.9 238.8,27.6 
	233,27.6 233,37.8 238.9,37.8 "/>
<polygon class="st0" points="248.9,35.5 242,27.6 240.8,27.6 240.8,37.8 242.2,37.8 242.2,29.9 249,37.8 250.3,37.8 250.3,27.6 
	248.9,27.6 "/>
<polygon class="st0" points="255.1,37.8 256.6,37.8 256.6,28.9 260.2,28.9 260.2,27.6 251.6,27.6 251.6,28.9 255.1,28.9 "/>
<polygon class="st0" points="153.8,44.9 157.3,44.9 157.3,53.8 158.8,53.8 158.8,44.9 162.4,44.9 162.4,43.6 153.8,43.6 "/>
<path class="st0" d="M167.9,48.9c1.1-0.4,1.7-1.3,1.7-2.5c0-1.5-1.1-2.8-3.1-2.8h-2.8v10.2h1.5v-4.5h0.7c0.7,0,1.4,0.3,2.4,1.9
	l1.6,2.5h1.7l-1.8-2.7C168.8,49.6,168.5,49.3,167.9,48.9L167.9,48.9z M166.1,48.1h-0.9v-3.2h1.2c1.1,0,1.7,0.6,1.7,1.6
	C168.1,47.8,167.2,48.1,166.1,48.1L166.1,48.1z"/>
<path class="st0" d="M176.7,43.5l-4.4,10.3h1.5l1.3-3h4.3l1.4,3h1.5l-4.6-10.3H176.7L176.7,43.5z M175.6,49.5l1.6-4l1.7,4H175.6z"/>
<path class="st0" d="M184,48.7c0-2,1.5-3.9,4-3.9c1.2,0,2.4,0.4,3.5,1v-1.5c-1.2-0.6-2.4-0.8-3.6-0.8c-3,0-5.5,2.3-5.5,5.3
	c0,2.4,1.7,5.2,5.5,5.2c1.3,0,2.5-0.2,3.7-0.9v-1.6c-1.1,0.7-2.3,1.1-3.7,1.1C185.5,52.6,184,50.7,184,48.7L184,48.7z"/>
<polygon class="st0" points="201.2,43.6 199.4,43.6 195.1,48.3 195.1,43.6 193.6,43.6 193.6,53.8 195.1,53.8 195.1,48.7 200.3,53.8 
	202.3,53.8 196.8,48.4 "/>
<rect x="203.5" y="43.6" class="st0" width="1.5" height="10.2"/>
<polygon class="st0" points="215.5,51.5 208.6,43.6 207.4,43.6 207.4,53.8 208.8,53.8 208.8,45.9 215.6,53.8 216.9,53.8 216.9,43.6 
	215.5,43.6 "/>
<path class="st0" d="M224.7,50.1h2v2.1c-1.1,0.4-1.5,0.4-2.3,0.4c-2.3,0-4-1.7-4-4s1.8-3.9,4-3.9c1.2,0,2.5,0.4,3.6,1.1v-1.5
	c-1.5-0.7-2.4-0.9-3.6-0.9c-3.3,0-5.5,2.5-5.5,5.3c0,2.4,1.7,5.2,5.6,5.2c1.3,0,2.5-0.2,3.7-0.8v-4.3h-3.4L224.7,50.1L224.7,50.1z"
	/>
<polygon class="st0" points="239.2,47.8 235.8,43.6 234.4,43.6 234.4,53.8 235.9,53.8 235.9,45.8 239.1,49.8 239.3,49.8 242.5,45.8 
	242.5,53.8 244,53.8 244,43.6 242.6,43.6 "/>
<path class="st0" d="M249.6,43.5l-4.4,10.3h1.5l1.3-3h4.3l1.4,3h1.5l-4.6-10.3H249.6z M248.5,49.5l1.6-4l1.7,4H248.5z"/>
<polygon class="st0" points="254.2,44.9 257.7,44.9 257.7,53.8 259.2,53.8 259.2,44.9 262.7,44.9 262.7,43.6 254.2,43.6 "/>
<path class="st0" d="M268.3,48.9c1.1-0.4,1.7-1.3,1.7-2.5c0-1.5-1.1-2.8-3.1-2.8h-2.8v10.2h1.5v-4.5h0.7c0.7,0,1.4,0.3,2.4,1.9
	l1.6,2.5h1.7l-1.8-2.7C269.2,49.6,268.9,49.3,268.3,48.9L268.3,48.9z M266.5,48.1h-0.9v-3.2h1.2c1.1,0,1.7,0.6,1.7,1.6
	C268.5,47.8,267.6,48.1,266.5,48.1L266.5,48.1z"/>
<rect x="273.2" y="43.6" class="st0" width="1.5" height="10.2"/>
<path class="st0" d="M282.1,48.5l4.1-4.9h-1.8l-3.2,3.9l-3.2-3.9h-1.8l4.1,4.9l-4.4,5.3h1.8c1.6-1.9,2.7-3.3,3.5-4.2l3.5,4.2h1.8
	L282.1,48.5L282.1,48.5z"/>
<path class="st0" d="M157.2,21.9c0.7,0,1.3-0.1,2-0.4v-2.3h-1.8v0.7h1V21c-0.6,0.2-0.8,0.2-1.2,0.2c-1.3,0-2.1-0.9-2.1-2.1
	s0.9-2.1,2.1-2.1c0.6,0,1.3,0.2,1.9,0.6v-0.8c-0.8-0.3-1.3-0.5-1.9-0.5c-1.8,0-2.9,1.3-2.9,2.8C154.2,20.4,155.1,21.9,157.2,21.9
	L157.2,21.9z"/>
<polygon class="st0" points="163.8,21.1 161.3,21.1 161.3,16.3 160.5,16.3 160.5,21.8 163.8,21.8 "/>
<path class="st0" d="M167,21.9c1.9,0,3-1.3,3-2.8s-1.2-2.8-2.9-2.8c-1.9,0-2.9,1.4-2.9,2.8C164.1,20.6,165.3,21.9,167,21.9L167,21.9
	z M167.1,17c1.4,0,2.1,1.1,2.1,2c0,1.4-1,2.1-2.2,2.1s-2.1-0.8-2.1-2C164.9,17.9,165.7,17,167.1,17L167.1,17z"/>
<path class="st0" d="M174.9,20.3c0-0.7-0.5-1.2-1.3-1.4c0.5-0.2,0.8-0.6,0.8-1.1c0-0.8-0.6-1.4-1.7-1.4h-1.6v5.4h1.7
	C173.8,21.8,174.9,21.4,174.9,20.3L174.9,20.3z M171.9,17h0.7c0.7,0,1,0.2,1,0.8c0,0.4-0.3,0.9-1.1,0.9H172L171.9,17L171.9,17z
	 M171.9,21.1v-1.7h0.8c1,0,1.4,0.3,1.4,0.9s-0.4,0.9-1.3,0.9L171.9,21.1L171.9,21.1z"/>
<path class="st0" d="M176.7,20.2h2.3l0.7,1.6h0.8l-2.4-5.5h-0.5l-2.3,5.5h0.8L176.7,20.2L176.7,20.2z M177.8,17.4l0.9,2.1H177
	L177.8,17.4z"/>
<polygon class="st0" points="184.6,21.1 182.1,21.1 182.1,16.3 181.3,16.3 181.3,21.8 184.6,21.8 "/>
<path class="st0" d="M189.6,16.3h-2.1v5.4h2.1c1.7,0,2.9-1.1,2.9-2.8C192.5,17.5,191.4,16.3,189.6,16.3L189.6,16.3z M189.5,21.1
	h-1.3v-4h1.1c1.5,0,2.3,0.8,2.3,2C191.7,20.3,190.9,21.1,189.5,21.1L189.5,21.1z"/>
<path class="st0" d="M194.3,20.2h2.3l0.7,1.6h0.8l-2.4-5.5h-0.5l-2.3,5.5h0.8L194.3,20.2L194.3,20.2z M195.4,17.4l0.9,2.1h-1.7
	L195.4,17.4z"/>
<polygon class="st0" points="199.7,21.8 200.4,21.8 200.4,17 202.4,17 202.4,16.3 197.8,16.3 197.8,17 199.7,17 "/>
<path class="st0" d="M202.8,21.8l0.7-1.6h2.3l0.7,1.6h0.8l-2.4-5.5h-0.5l-2.3,5.5H202.8L202.8,21.8z M204.6,17.4l0.9,2.1h-1.7
	L204.6,17.4z"/>
<rect x="210.2" y="16.3" class="st0" width="0.8" height="5.4"/>
<polygon class="st0" points="213.1,17.6 216.7,21.8 217.4,21.8 217.4,16.3 216.7,16.3 216.7,20.6 213,16.3 212.4,16.3 212.4,21.8 
	213.1,21.8 "/>
<path class="st0" d="M219.8,19.2c1.1,0.6,1.2,0.9,1.2,1.2c0,0.4-0.3,0.7-0.8,0.7c-0.6,0-1.1-0.3-1.5-0.8v1c0.4,0.3,0.9,0.5,1.5,0.5
	c0.9,0,1.6-0.6,1.6-1.4c0-0.7-0.2-1.1-1.4-1.8c-0.8-0.5-0.9-0.7-0.9-1c0-0.4,0.3-0.6,0.8-0.6s0.9,0.2,1.3,0.6v-0.9
	c-0.4-0.2-0.8-0.4-1.2-0.4c-0.9,0-1.6,0.6-1.6,1.4C218.6,18.3,218.9,18.7,219.8,19.2L219.8,19.2z"/>
<polygon class="st0" points="224.2,21.8 225,21.8 225,17 226.9,17 226.9,16.3 222.3,16.3 222.3,17 224.2,17 "/>
<rect x="227.8" y="16.3" class="st0" width="0.8" height="5.4"/>
<polygon class="st0" points="234,16.3 229.4,16.3 229.4,17 231.3,17 231.3,21.8 232.1,21.8 232.1,17 234,17 "/>
<path class="st0" d="M237.1,21.9c1.6,0,2.3-0.9,2.3-2.4v-3.1h-0.8v3.1c0,1.2-0.5,1.7-1.5,1.7s-1.6-0.5-1.6-1.7v-3.2h-0.8v3.2
	C234.8,21.1,235.6,21.9,237.1,21.9z"/>
<polygon class="st0" points="242.2,21.8 242.9,21.8 242.9,17 244.9,17 244.9,16.3 240.3,16.3 240.3,17 242.2,17 "/>
<polygon class="st0" points="248.9,21.1 246.5,21.1 246.5,19.4 248.7,19.4 248.7,18.7 246.5,18.7 246.5,17 248.8,17 248.8,16.3 
	245.7,16.3 245.7,21.8 248.9,21.8 "/>
</svg>
